<svg width="22" height="22" fill="none" xmlns="http://www.w3.org/2000/svg">
  <path d="M20.352 18.207H1.648c-.91 0-1.648-.738-1.648-1.648V5.441c0-.91.738-1.648 1.648-1.648h18.704c.91 0 1.648.738 1.648 1.648v11.118c0 .91-.738 1.648-1.648 1.648z" fill="#41479B"/>
  <path d="M22 7.207H0v7.586h22V7.207z" fill="#FF4B55"/>
  <path d="M16.02 13.876v-.538h-.18v-.358h-.18v-.359h-.178v-.358h-.538v-1.076l.179-.18v-.537h-.18v-.359h-.178v-.537h-.18v-.359h-.179v-.358h-.18v-.18h-.358v.18h-.18v.358h-.178v.359h-.18v.537h-.179v.359h-1.075v-.538h-.18v-.538h-.179v-.537h-.18v-.359h-.179V8.14h-.179v-.18h-.09v-.179h-.179v.18h-.09v.179h-.179v.358h-.179v.359h-.18v.537h-.178v.538h-.18v.538H8.85v-.359h-.18v-.537H8.49v-.359h-.179v-.358h-.18v-.18h-.358v.18h-.18v.358h-.178v.359h-.18v.537h-.179v.359h-.18v.538l.18.18v1.075h-.538v.358H6.34v.359h-.18v.358h-.178v.538H5.8v.538H16.2v-.538h-.18z" fill="#F5F5F5"/>
</svg>