<svg width="22" height="22" fill="none" xmlns="http://www.w3.org/2000/svg">
  <g clip-path="url(#clip0)">
    <path d="M22 3.667H0v14.667h22V3.667z" fill="#F0F0F0"/>
    <path d="M12.375 3.667h-2.75v5.958H0v2.75h9.625v5.958h2.75v-5.958H22v-2.75h-9.625V3.667z" fill="#D80027"/>
    <path d="M16.92 13.55L22 16.373V13.55h-5.08zM13.391 13.55L22 18.334v-1.352l-6.174-3.43H13.39zM19.707 18.333l-6.316-3.509v3.51h6.316z" fill="#0052B4"/>
    <path d="M13.391 13.55L22 18.334v-1.352l-6.174-3.43H13.39z" fill="#F0F0F0"/>
    <path d="M13.391 13.55L22 18.334v-1.352l-6.174-3.43H13.39z" fill="#D80027"/>
    <path d="M3.882 13.55L0 15.707V13.55h3.882zM8.609 14.159v4.174H1.095L8.61 14.16z" fill="#0052B4"/>
    <path d="M6.174 13.55L0 16.98v1.353l8.609-4.782H6.174z" fill="#D80027"/>
    <path d="M5.08 8.45L0 5.626V8.45h5.08zM8.609 8.45L0 3.666v1.352l6.174 3.43H8.61zM2.293 3.667L8.61 7.175v-3.51H2.293z" fill="#0052B4"/>
    <path d="M8.609 8.45L0 3.666v1.352l6.174 3.43H8.61z" fill="#F0F0F0"/>
    <path d="M8.609 8.45L0 3.666v1.352l6.174 3.43H8.61z" fill="#D80027"/>
    <path d="M18.118 8.45L22 6.292v2.156h-3.882zM13.391 7.841V3.667h7.514L13.39 7.84z" fill="#0052B4"/>
    <path d="M15.826 8.45L22 5.018V3.666L13.391 8.45h2.435z" fill="#D80027"/>
  </g>
  <defs>
    <clipPath id="clip0">
      <path fill="#fff" d="M0 0h22v22H0z"/>
    </clipPath>
  </defs>
</svg>